<?xml version="1.0" standalone="no"?><!DOCTYPE svg PUBLIC "-//W3C//DTD SVG 1.1//EN" "http://www.w3.org/Graphics/SVG/1.1/DTD/svg11.dtd"><svg t="1688391702211" class="icon" viewBox="0 0 1024 1024" version="1.1" xmlns="http://www.w3.org/2000/svg" p-id="2681" xmlns:xlink="http://www.w3.org/1999/xlink" width="200" height="200"><path d="M85.333333 0h853.333334c46.933333 0 85.333333 38.4 85.333333 85.333333v853.333334c0 46.933333-38.4 85.333333-85.333333 85.333333H85.333333c-46.933333 0-85.333333-38.4-85.333333-85.333333V85.333333c0-46.933333 38.4-85.333333 85.333333-85.333333z" fill="#F4F4F4" p-id="2682"></path><path d="M324.266667 759.466667c-61.866667 0-128-23.466667-174.933334-70.4C104.533333 640 78.933333 578.133333 78.933333 512s25.6-128 72.533334-174.933333c93.866667-93.866667 245.333333-98.133333 341.333333-6.4l34.133333 34.133333-46.933333 46.933333-34.133333-34.133333c-70.4-64-181.333333-61.866667-249.6 6.4-32 34.133333-51.2 81.066667-51.2 128s19.2 93.866667 51.2 128c70.4 68.266667 183.466667 68.266667 256 0l211.2-200.533333c19.2-19.2 44.8-29.866667 74.666666-29.866667 57.6 0 106.666667 46.933333 106.666667 106.666667s-46.933333 106.666667-106.666667 106.666666c-25.6 0-49.066667-8.533333-68.266666-25.6l42.666666-49.066666c17.066667 14.933333 40.533333 12.8 53.333334-4.266667s12.8-40.533333-4.266667-53.333333c-14.933333-12.8-38.4-12.8-53.333333 2.133333l-211.2 200.533333c-42.666667 40.533333-104.533333 66.133333-172.8 66.133334z" fill="#0661A8" p-id="2683"></path><path d="M740.266667 716.8c-49.066667 0-100.266667-19.2-138.666667-55.466667l44.8-46.933333c53.333333 51.2 136.533333 49.066667 189.866667-2.133333 51.2-53.333333 51.2-138.666667 0-192-53.333333-51.2-138.666667-51.2-192 0l-211.2 202.666666c-59.733333 59.733333-155.733333 57.6-215.466667 0-59.733333-59.733333-57.6-155.733333 0-215.466666 55.466667-55.466667 145.066667-57.6 204.8-8.533334l2.133333 2.133334 34.133334 32-46.933334 46.933333-29.866666-32c-34.133333-27.733333-85.333333-25.6-115.2 6.4-32 32-32 87.466667 0 121.6 32 32 87.466667 32 121.6 0l211.2-202.666667c38.4-38.4 89.6-57.6 142.933333-57.6 113.066667 0 202.666667 91.733333 202.666667 202.666667 0 53.333333-21.333333 106.666667-57.6 142.933333-40.533333 32-93.866667 55.466667-147.2 55.466667z" fill="#37B1DF" p-id="2684"></path></svg>